<svg xmlns="http://www.w3.org/2000/svg" width="14.967" height="11.76"><g data-name="Сгруппировать 87"><path data-name="Контур 360" d="M13.63 11.763a1.279 1.279 0 00.876-.33l-4.24-4.24-.293.211q-.476.351-.773.547a4.759 4.759 0 01-.789.4 2.406 2.406 0 01-.919.2h-.017a2.4 2.4 0 01-.919-.2 4.744 4.744 0 01-.789-.4q-.3-.2-.773-.547l-.293-.212L.46 11.434a1.279 1.279 0 00.876.33z"/><path data-name="Контур 361" d="M.844 4.519A4.428 4.428 0 010 3.792v6.452l3.737-3.737Q2.616 5.723.844 4.519z"/><path data-name="Контур 362" d="M14.132 4.519q-1.706 1.155-2.9 1.989l3.736 3.736V3.792a4.61 4.61 0 01-.836.727z"/><path data-name="Контур 363" d="M13.63 0H1.336a1.193 1.193 0 00-.99.434A1.685 1.685 0 00-.001 1.52a1.952 1.952 0 00.459 1.14 4.143 4.143 0 00.977.965q.284.2 1.712 1.19c.514.356.961.667 1.345.935l.843.59.125.089.23.166q.271.2.451.317t.434.271a2.534 2.534 0 00.48.226 1.329 1.329 0 00.418.075h.021a1.329 1.329 0 00.418-.075 2.529 2.529 0 00.482-.222q.255-.15.434-.271t.451-.317l.23-.166.125-.089.845-.587 3.064-2.127a3.973 3.973 0 001.019-1.027 2.21 2.21 0 00.409-1.261A1.347 1.347 0 0013.635.006z"/></g></svg>